<svg xmlns="http://www.w3.org/2000/svg" viewBox="0 0 512 512" style="height: 512px; width: 512px;"><path d="M0 0h512v512H0z" fill="rgba(0, 0, 0, 1)"></path><g class="" transform="translate(0,0)" style="touch-action: none;"><path fill="rgba(255, 255, 255, 1)" d="M55 18v476h18v-37h46v37h274v-37h46v37h18V18h-18v37h-46V18h-18v60H137V18h-18v37H73V18H55zm18 55h46v46H73V73zm320 0h46v46h-46V73zm-256 41h238v156H137V114zm-64 23h46v46H73v-46zm320 0h46v46h-46v-46zM73 201h46v46H73v-46zm320 0h46v46h-46v-46zM73 265h46v46H73v-46zm320 0h46v46h-46v-46zm-256 41h238v156H137V306zm-64 23h46v46H73v-46zm320 0h46v46h-46v-46zM73 393h46v46H73v-46zm320 0h46v46h-46v-46z"></path></g></svg>