<?xml version="1.0" encoding="UTF-8" standalone="no"?>
<svg
   xmlns:dc="http://purl.org/dc/elements/1.1/"
   xmlns:cc="http://creativecommons.org/ns#"
   xmlns:rdf="http://www.w3.org/1999/02/22-rdf-syntax-ns#"
   xmlns:svg="http://www.w3.org/2000/svg"
   xmlns="http://www.w3.org/2000/svg"
   xmlns:sodipodi="http://sodipodi.sourceforge.net/DTD/sodipodi-0.dtd"
   xmlns:inkscape="http://www.inkscape.org/namespaces/inkscape"
   viewBox="0 0 512 512"
   style="height: 512px; width: 512px;"
   version="1.1"
   id="svg3818"
   sodipodi:docname="start.svg"
   inkscape:version="0.92.2 (5c3e80d, 2017-08-06)">
  <metadata
     id="metadata3822">
    <rdf:RDF>
      <cc:Work
         rdf:about="">
        <dc:format>image/svg+xml</dc:format>
        <dc:type
           rdf:resource="http://purl.org/dc/dcmitype/StillImage" />
      </cc:Work>
    </rdf:RDF>
  </metadata>
  <sodipodi:namedview
     pagecolor="#ffffff"
     bordercolor="#666666"
     borderopacity="1"
     objecttolerance="10"
     gridtolerance="10"
     guidetolerance="10"
     inkscape:pageopacity="0"
     inkscape:pageshadow="2"
     inkscape:window-width="1920"
     inkscape:window-height="1017"
     id="namedview3820"
     showgrid="false"
     inkscape:zoom="1.1739077"
     inkscape:cx="112.98729"
     inkscape:cy="209.55607"
     inkscape:window-x="1912"
     inkscape:window-y="-8"
     inkscape:window-maximized="1"
     inkscape:current-layer="g3816" />
  <defs
     id="defs3810">
    <filter
       id="shadow-4"
       height="300%"
       width="300%"
       x="-100%"
       y="-100%">
      <feFlood
         flood-color="#fff06f"
         result="flood"
         id="feFlood3799" />
      <feComposite
         in="flood"
         in2="SourceGraphic"
         operator="atop"
         result="composite"
         id="feComposite3801" />
      <feGaussianBlur
         in="composite"
         stdDeviation="15"
         result="blur"
         id="feGaussianBlur3803" />
      <feOffset
         dx="0"
         dy="0"
         result="offset"
         id="feOffset3805" />
      <feComposite
         in="SourceGraphic"
         in2="offset"
         operator="over"
         id="feComposite3807" />
    </filter>
  </defs>
  <path
     d="M0 0h512v512H0z"
     fill="transparent"
     opacity="0"
     id="path3812" />
  <g
     class=""
     transform="translate(0,0)"
     style="touch-action: none;"
     id="g3816">
    <g
       id="g3850"
       transform="matrix(1.0499466,0,0,1.0499466,-23.756324,-12.883945)">
      <path
         style="stroke-width:0.74587774"
         inkscape:connector-curvature="0"
         id="path3830"
         d="M 351.42872,494.86748 C 393.52391,409.92687 411.9548,320.4695 427.61233,226.76052 l 0.6925,-3.82914 -0.0651,-0.0106 c 3.78135,-22.76629 7.43314,-45.79335 11.22074,-69.0583 17.17993,4.97265 34.0456,11.32991 50.50718,18.75508 l 4.85923,-29.70076 -71.53274,-11.70821 C 421.6036,93.535963 428.6367,57.29854 442.06989,22.101864 l -29.21214,-4.78341 c 1.83509,37.690909 -1.75386,74.50486 -16.75998,109.437666 l -71.76281,-11.74379 -4.86093,29.69841 c 18.07429,-2.78042 36.07538,-3.50245 53.882,-2.46966 -7.44017,45.62636 -14.35661,89.73552 -19.35214,133.43135 -0.0254,0.22405 -0.0683,0.44432 -0.0938,0.66837 -8.21286,72.12264 -11.15577,143.22791 -2.48144,218.52668 z m 14.2963,-141.02279 34.15416,-208.76449 c 4.58893,0.70673 9.1742,1.5257 13.72881,2.44541 L 379.4662,356.11257 Z" />
      <path
         style="stroke-width:0.74587774"
         inkscape:connector-curvature="0"
         id="path3830-0"
         d="M 181.46756,494.86748 C 139.37237,409.92687 120.94148,320.4695 105.28395,226.76052 l -0.6925,-3.82914 0.0651,-0.0106 c -3.78135,-22.76629 -7.43314,-45.79335 -11.22074,-69.0583 -17.17993,4.97265 -34.0456,11.32991 -50.50718,18.75508 L 38.0694,142.9168 109.60214,131.20859 C 111.29268,93.53596 104.25958,57.29854 90.82639,22.101864 l 29.21214,-4.78341 c -1.83509,37.690906 1.75386,74.504856 16.75998,109.437666 l 71.76281,-11.74379 4.86093,29.69841 c -18.07429,-2.78042 -36.07538,-3.50245 -53.882,-2.46966 7.44017,45.62636 14.35661,89.73552 19.35214,133.43135 0.0254,0.22405 0.0683,0.44432 0.0938,0.66837 8.21286,72.12264 11.15577,143.22791 2.48144,218.52668 z M 167.17126,353.84469 133.0171,145.0802 c -4.58893,0.70673 -9.1742,1.5257 -13.72881,2.44541 l 34.14179,208.58696 z" />
    </g>
  </g>
  <!-- react-empty: 13 -->
</svg>
